<svg width="80" height="80" viewBox="0 0 80 80" fill="none" xmlns="http://www.w3.org/2000/svg">
<g clip-path="url(#clip0_9422_491161)">
<path d="M1.34898 31.9171L23.0091 41.5958L40.8364 76.2358L1.34898 31.9171Z" stroke="#1B1C1D" stroke-width="3" stroke-linecap="round" stroke-linejoin="round"/>
<path d="M23.0095 41.5958L56.7639 41.9823L40.8369 76.2359L23.0095 41.5958Z" stroke="#1B1C1D" stroke-width="3" stroke-linecap="round" stroke-linejoin="round"/>
<path d="M40.8404 76.2358L78.6691 32.5451L56.7674 41.9822L40.8404 76.2358Z" stroke="#1B1C1D" stroke-width="3" stroke-linecap="round" stroke-linejoin="round"/>
<path d="M23.0113 41.5946L29.3402 19.387L51.2902 19.1776L56.7656 41.9811L23.0113 41.5946Z" stroke="#1B1C1D" stroke-width="3" stroke-linecap="round" stroke-linejoin="round"/>
<path d="M1.34938 31.9172L18.0333 12.6889L29.3384 19.3882L23.0095 41.5959L1.34938 31.9172Z" stroke="#1B1C1D" stroke-width="3" stroke-linecap="round" stroke-linejoin="round"/>
<path d="M51.287 19.1787L61.8191 11.8996L78.6641 32.5452L56.7624 41.9822L51.287 19.1787Z" stroke="#1B1C1D" stroke-width="3" stroke-linecap="round" stroke-linejoin="round"/>
<path d="M18.0333 12.688L30.965 7.26088L48.8567 7.08373L61.8206 11.8989L51.2885 19.178L29.3385 19.3873L18.0333 12.688Z" stroke="#1B1C1D" stroke-width="3" stroke-linecap="round" stroke-linejoin="round"/>
<path fill-rule="evenodd" clip-rule="evenodd" d="M70.3702 11.4979L65.1563 13.222L63.6607 18.506L61.9367 13.2921L56.6527 11.7966L61.8666 10.0725L63.3621 4.78849L65.0862 10.0024L70.3702 11.4979Z" fill="#B5AAD1"/>
<path fill-rule="evenodd" clip-rule="evenodd" d="M75.2767 5.54871L72.6678 6.41141L71.9195 9.05545L71.0568 6.44649L68.4127 5.69816L71.0217 4.83546L71.77 2.19142L72.6327 4.80038L75.2767 5.54871Z" fill="#B5AAD1"/>
<path fill-rule="evenodd" clip-rule="evenodd" d="M11.5435 49.0153L8.93451 49.878L8.18618 52.522L7.32348 49.913L4.67944 49.1647L7.2884 48.302L8.03674 45.658L8.89944 48.2669L11.5435 49.0153Z" fill="#1B1C1D"/>
</g>
<defs>
<clipPath id="clip0_9422_491161">
<rect width="80" height="80" fill="white"/>
</clipPath>
</defs>
</svg>
