<svg width="110" height="111" viewBox="0 0 110 111" fill="none" xmlns="http://www.w3.org/2000/svg">
<g filter="url(#filter0_d_2491_379346)">
<path d="M29.0403 43.3012C28.9891 43.0155 28.8844 42.7326 28.7232 42.4686C28.0745 41.4065 26.756 41.0523 25.7782 41.6774C24.8005 42.3025 24.5337 43.6702 25.1823 44.7323C25.3436 44.9963 25.5462 45.2166 25.7747 45.3889C25.8011 45.4384 25.8367 45.4843 25.8818 45.5238L29.7068 48.8743C30.0286 49.1562 30.4852 48.8643 30.3786 48.4448L29.1119 43.4588C29.097 43.4 29.0723 43.3471 29.0403 43.3012Z" fill="url(#paint0_linear_2491_379346)"/>
</g>
<g filter="url(#filter1_d_2491_379346)">
<path d="M71.1448 78.7469C71.0936 78.4612 70.9889 78.1783 70.8277 77.9143C70.179 76.8522 68.8605 76.498 67.8827 77.1231C66.9049 77.7481 66.6382 79.1159 67.2868 80.1779C67.4481 80.442 67.6507 80.6622 67.8792 80.8346C67.9056 80.8841 67.9412 80.93 67.9863 80.9695L71.8113 84.32C72.133 84.6019 72.5897 84.31 72.4831 83.8905L71.2164 78.9044C71.2015 78.8457 71.1768 78.7928 71.1448 78.7469Z" fill="url(#paint1_linear_2491_379346)"/>
</g>
<g filter="url(#filter2_d_2491_379346)">
<path d="M73.4512 60.1911C73.4819 60.0197 73.5447 59.8499 73.6415 59.6915C74.0307 59.0543 74.8218 58.8417 75.4085 59.2168C75.9951 59.5918 76.1552 60.4125 75.766 61.0497C75.6692 61.2081 75.5476 61.3403 75.4105 61.4437C75.3947 61.4734 75.3733 61.5009 75.3463 61.5246L73.0513 63.535C72.8583 63.7041 72.5843 63.5289 72.6482 63.2773L73.4082 60.2856C73.4172 60.2504 73.432 60.2186 73.4512 60.1911Z" fill="url(#paint2_linear_2491_379346)"/>
</g>
<g filter="url(#filter3_d_2491_379346)">
<path d="M51.7736 30.8784C51.8974 30.7586 52.0024 30.6123 52.0795 30.443C52.3899 29.762 52.1333 28.9674 51.5063 28.6683C50.8793 28.3692 50.1195 28.6788 49.8091 29.3598C49.7319 29.5291 49.6898 29.7054 49.6797 29.8794C49.664 29.9091 49.653 29.9425 49.6483 29.9786L49.2503 33.0427C49.2169 33.3004 49.5096 33.4401 49.6811 33.2482L51.7195 30.9667C51.7436 30.9398 51.7615 30.9098 51.7736 30.8784Z" fill="url(#paint3_linear_2491_379346)"/>
</g>
<g filter="url(#filter4_d_2491_379346)">
<path d="M93.287 48.8639C93.4571 48.8535 93.6294 48.8104 93.7949 48.7315C94.4605 48.4139 94.7631 47.6365 94.4708 46.9951C94.1784 46.3536 93.4018 46.0911 92.7361 46.4086C92.5707 46.4876 92.4276 46.5949 92.3106 46.7215C92.2799 46.734 92.2505 46.7523 92.2243 46.7769L89.9943 48.8624C89.8067 49.0378 89.9432 49.3374 90.1952 49.3031L93.1901 48.896C93.2254 48.8912 93.258 48.88 93.287 48.8639Z" fill="url(#paint4_linear_2491_379346)"/>
</g>
<g filter="url(#filter5_d_2491_379346)">
<path d="M69.8451 12.688C69.9468 12.4802 70.0131 12.2479 70.0343 11.9998C70.1196 11.0017 69.4439 10.1259 68.5251 10.0437C67.6062 9.96145 66.7921 10.7039 66.7068 11.702C66.6856 11.9501 66.7114 12.1906 66.7763 12.4133C66.7698 12.4579 66.771 12.5048 66.7812 12.5522L67.6483 16.577C67.7212 16.9156 68.1503 16.954 68.2796 16.6335L69.8167 12.8239C69.8348 12.7791 69.8439 12.7331 69.8451 12.688Z" fill="url(#paint5_linear_2491_379346)"/>
</g>
<g filter="url(#filter6_d_2491_379346)">
<path d="M40.7198 34.6357C40.8447 34.5667 40.96 34.472 41.0578 34.3528C41.4512 33.8731 41.4121 33.1769 40.9705 32.7978C40.5289 32.4187 39.852 32.5002 39.4585 32.9799C39.3608 33.0991 39.2897 33.2317 39.2449 33.3696C39.2259 33.39 39.2101 33.4144 39.1987 33.4425L38.2324 35.8211C38.1511 36.0212 38.3573 36.1982 38.5358 36.0815L40.6576 34.6949C40.6826 34.6786 40.7034 34.6584 40.7198 34.6357Z" fill="url(#paint6_linear_2491_379346)"/>
</g>
<g filter="url(#filter7_d_2491_379346)">
<path d="M56.7127 41.913C56.6679 41.7752 56.5969 41.6426 56.4991 41.5234C56.1056 41.0437 55.4287 40.9621 54.9871 41.3413C54.5455 41.7204 54.5064 42.4166 54.8998 42.8963C54.9976 43.0155 55.113 43.1101 55.2378 43.1792C55.2542 43.2018 55.275 43.222 55.3 43.2384L57.4218 44.625C57.6003 44.7417 57.8065 44.5646 57.7252 44.3645L56.7589 41.986C56.7475 41.9579 56.7317 41.9335 56.7127 41.913Z" fill="url(#paint7_linear_2491_379346)"/>
</g>
<g filter="url(#filter8_d_2491_379346)">
<path d="M61.3936 29.0749C61.3398 28.9096 61.2545 28.7504 61.1372 28.6073C60.6651 28.0317 59.8527 27.9338 59.3228 28.3888C58.7929 28.8437 58.746 29.6792 59.2181 30.2548C59.3355 30.3979 59.4738 30.5114 59.6237 30.5943C59.6434 30.6215 59.6683 30.6457 59.6983 30.6653L62.2444 32.3293C62.4586 32.4693 62.7061 32.2568 62.6085 32.0167L61.449 29.1624C61.4353 29.1288 61.4163 29.0995 61.3936 29.0749Z" fill="url(#paint8_linear_2491_379346)"/>
</g>
<g filter="url(#filter9_d_2491_379346)">
<path d="M55.4642 54.478C55.2487 54.5513 55.0413 54.6677 54.8548 54.8278C54.1046 55.4718 53.9771 56.5799 54.57 57.3028C55.1629 58.0257 56.2517 58.0896 57.0019 57.4456C57.1883 57.2855 57.3364 57.0968 57.4444 56.8923C57.4798 56.8655 57.5114 56.8315 57.5369 56.7906L59.7055 53.3173C59.8879 53.0251 59.611 52.6876 59.2981 52.8206L55.5783 54.4024C55.5344 54.4211 55.4962 54.447 55.4642 54.478Z" fill="url(#paint9_linear_2491_379346)"/>
</g>
<g filter="url(#filter10_d_2491_379346)">
<path d="M55.2767 8.3774C55.0612 8.45075 54.8538 8.56709 54.6673 8.72718C53.9171 9.37119 53.7896 10.4793 54.3825 11.2022C54.9754 11.9251 56.0642 11.989 56.8144 11.345C57.0008 11.1849 57.1489 10.9962 57.2569 10.7918C57.2923 10.7649 57.3239 10.7309 57.3494 10.69L59.518 7.21674C59.7004 6.92456 59.4235 6.58697 59.1106 6.72004L55.3908 8.30186C55.3469 8.32049 55.3087 8.34641 55.2767 8.3774Z" fill="url(#paint10_linear_2491_379346)"/>
</g>
<g filter="url(#filter11_d_2491_379346)">
<path d="M47.1136 68.5492C46.8981 68.4759 46.6907 68.3595 46.5042 68.1995C45.7541 67.5554 45.6266 66.4473 46.2194 65.7245C46.8123 65.0016 47.9011 64.9376 48.6513 65.5816C48.8378 65.7417 48.9858 65.9305 49.0938 66.1349C49.1292 66.1617 49.1608 66.1957 49.1863 66.2366L51.3549 69.7099C51.5373 70.0021 51.2604 70.3397 50.9475 70.2066L47.2277 68.6248C47.1838 68.6061 47.1456 68.5802 47.1136 68.5492Z" fill="url(#paint11_linear_2491_379346)"/>
</g>
<g filter="url(#filter12_d_2491_379346)">
<path d="M42.9388 21.5607C42.7233 21.4874 42.5159 21.371 42.3294 21.2109C41.5793 20.5669 41.4518 19.4588 42.0446 18.7359C42.6375 18.013 43.7263 17.9491 44.4765 18.5931C44.663 18.7532 44.811 18.9419 44.919 19.1463C44.9544 19.1732 44.986 19.2072 45.0115 19.2481L47.1801 22.7214C47.3625 23.0136 47.0856 23.3511 46.7727 23.2181L43.0529 21.6363C43.009 21.6176 42.9708 21.5917 42.9388 21.5607Z" fill="url(#paint12_linear_2491_379346)"/>
</g>
<g filter="url(#filter13_d_2491_379346)">
<path d="M71.4201 32.1078C71.3123 32.1445 71.2086 32.2027 71.1154 32.2827C70.7403 32.6047 70.6766 33.1588 70.973 33.5202C71.2694 33.8817 71.8138 33.9136 72.1889 33.5916C72.2822 33.5116 72.3562 33.4172 72.4102 33.315C72.4279 33.3016 72.4437 33.2846 72.4564 33.2641L73.5407 31.5275C73.6319 31.3814 73.4935 31.2126 73.337 31.2791L71.4771 32.0701C71.4552 32.0794 71.4361 32.0923 71.4201 32.1078Z" fill="url(#paint13_linear_2491_379346)"/>
</g>
<g filter="url(#filter14_d_2491_379346)">
<path d="M42.1935 44.9229C42.0858 44.9596 41.9821 45.0177 41.8888 45.0978C41.5137 45.4198 41.45 45.9738 41.7464 46.3353C42.0429 46.6967 42.5873 46.7287 42.9624 46.4067C43.0556 46.3267 43.1296 46.2323 43.1836 46.1301C43.2013 46.1166 43.2171 46.0996 43.2299 46.0792L44.3142 44.3426C44.4054 44.1965 44.2669 44.0277 44.1105 44.0942L42.2506 44.8851C42.2286 44.8944 42.2095 44.9074 42.1935 44.9229Z" fill="url(#paint14_linear_2491_379346)"/>
</g>
<g filter="url(#filter15_d_2491_379346)">
<path d="M17.8121 50.3457C17.8838 50.5662 17.9976 50.7784 18.154 50.9692C18.7835 51.7367 19.8666 51.8671 20.5732 51.2605C21.2797 50.654 21.3423 49.54 20.7128 48.7725C20.5563 48.5818 20.3718 48.4303 20.172 48.3198C20.1458 48.2836 20.1125 48.2513 20.0725 48.2252L16.6777 46.0065C16.3921 45.8199 16.0621 46.1031 16.1922 46.4233L17.7383 50.229C17.7565 50.2739 17.7819 50.313 17.8121 50.3457Z" fill="url(#paint15_linear_2491_379346)"/>
</g>
<g filter="url(#filter16_d_2491_379346)">
<path d="M69.8467 43.4736C69.7929 43.3082 69.7076 43.1491 69.5903 43.006C69.1182 42.4304 68.3059 42.3325 67.7759 42.7875C67.246 43.2424 67.1991 44.0778 67.6712 44.6535C67.7886 44.7966 67.927 44.9101 68.0768 44.993C68.0965 45.0202 68.1214 45.0444 68.1514 45.064L70.6975 46.728C70.9117 46.868 71.1592 46.6555 71.0617 46.4154L69.9021 43.5611C69.8884 43.5275 69.8694 43.4982 69.8467 43.4736Z" fill="url(#paint16_linear_2491_379346)"/>
</g>
<g filter="url(#filter17_d_2491_379346)">
<path d="M63.3259 64.9152C63.2885 64.6566 63.2031 64.3987 63.0661 64.1561C62.5153 63.18 61.3402 62.819 60.4416 63.3498C59.543 63.8806 59.261 65.1022 59.8118 66.0784C59.9488 66.321 60.1243 66.5256 60.3245 66.688C60.3467 66.7334 60.3774 66.7758 60.4167 66.8128L63.7542 69.9493C64.035 70.2132 64.4546 69.9653 64.3717 69.5846L63.3854 65.0592C63.3738 65.0059 63.3532 64.9575 63.3259 64.9152Z" fill="url(#paint17_linear_2491_379346)"/>
</g>
<g filter="url(#filter18_d_2491_379346)">
<path d="M34.0993 22.1983C34.062 21.9396 33.9765 21.6818 33.8396 21.4392C33.2887 20.463 32.1137 20.102 31.215 20.6329C30.3164 21.1637 30.0344 22.3853 30.5853 23.3614C30.7222 23.6041 30.8977 23.8087 31.098 23.9711C31.1201 24.0165 31.1508 24.0589 31.1901 24.0959L34.5276 27.2324C34.8084 27.4963 35.2281 27.2484 35.1451 26.8677L34.1588 22.3423C34.1472 22.289 34.1266 22.2406 34.0993 22.1983Z" fill="url(#paint18_linear_2491_379346)"/>
</g>
<g filter="url(#filter19_d_2491_379346)">
<path d="M78.4339 44.8384C78.4712 44.5798 78.5567 44.322 78.6936 44.0793C79.2445 43.1032 80.4195 42.7422 81.3182 43.273C82.2168 43.8038 82.4988 45.0254 81.9479 46.0016C81.811 46.2442 81.6355 46.4489 81.4352 46.6112C81.4131 46.6566 81.3824 46.699 81.3431 46.736L78.0056 49.8726C77.7248 50.1364 77.3051 49.8885 77.3881 49.5078L78.3744 44.9824C78.386 44.9291 78.4066 44.8807 78.4339 44.8384Z" fill="url(#paint19_linear_2491_379346)"/>
</g>
<g filter="url(#filter20_d_2491_379346)">
<path d="M19.674 25.9469C19.5153 25.7421 19.3153 25.5625 19.0781 25.4224C18.124 24.8589 16.9299 25.1473 16.4111 26.0667C15.8923 26.9861 16.2451 28.1883 17.1992 28.7519C17.4364 28.892 17.6884 28.9794 17.9412 29.0176C17.9825 29.0455 18.0298 29.0666 18.0819 29.0785L22.5052 30.0876C22.8773 30.1724 23.1196 29.7431 22.8617 29.4558L19.7959 26.0412C19.7598 26.001 19.7183 25.9696 19.674 25.9469Z" fill="url(#paint20_linear_2491_379346)"/>
</g>
<g filter="url(#filter21_d_2491_379346)">
<path d="M32.1825 69.0719C32.3412 68.8671 32.5412 68.6875 32.7784 68.5474C33.7325 67.9839 34.9265 68.2723 35.4453 69.1917C35.9642 70.1111 35.6113 71.3133 34.6572 71.8769C34.4201 72.017 34.168 72.1044 33.9153 72.1426C33.8739 72.1705 33.8266 72.1916 33.7745 72.2035L29.3512 73.2126C28.9791 73.2974 28.7369 72.8681 28.9948 72.5808L32.0605 69.1662C32.0966 69.126 32.1381 69.0946 32.1825 69.0719Z" fill="url(#paint21_linear_2491_379346)"/>
</g>
<g filter="url(#filter22_d_2491_379346)">
<path d="M81.6913 21.9906C81.737 21.763 81.7422 21.521 81.6999 21.2758C81.5299 20.2891 80.6556 19.6221 79.7473 19.7859C78.8389 19.9498 78.2404 20.8825 78.4104 21.8692C78.4527 22.1145 78.5385 22.34 78.6575 22.5379C78.6626 22.5827 78.6755 22.6277 78.6974 22.6708L80.5531 26.3288C80.7092 26.6365 81.1334 26.56 81.1773 26.2162L81.6982 22.1294C81.7044 22.0813 81.7015 22.0344 81.6913 21.9906Z" fill="url(#paint22_linear_2491_379346)"/>
</g>
<g filter="url(#filter23_d_2491_379346)">
<path d="M46.4564 79.2276C46.2409 79.301 46.0335 79.4173 45.847 79.5774C45.0968 80.2214 44.9693 81.3295 45.5622 82.0524C46.1551 82.7753 47.2439 82.8393 47.9941 82.1952C48.1805 82.0352 48.3285 81.8464 48.4366 81.642C48.4719 81.6151 48.5035 81.5811 48.5291 81.5402L50.6976 78.067C50.8801 77.7748 50.6032 77.4372 50.2903 77.5703L46.5704 79.1521C46.5266 79.1707 46.4884 79.1966 46.4564 79.2276Z" fill="url(#paint23_linear_2491_379346)"/>
</g>
<g filter="url(#filter24_d_2491_379346)">
<path d="M86.5479 56.2887C86.4941 56.1233 86.4088 55.9641 86.2915 55.8211C85.8194 55.2454 85.007 55.1476 84.4771 55.6025C83.9472 56.0575 83.9003 56.8929 84.3724 57.4685C84.4898 57.6116 84.6281 57.7252 84.778 57.8081C84.7977 57.8352 84.8226 57.8595 84.8526 57.8791L87.3987 59.5431C87.6129 59.683 87.8604 59.4706 87.7628 59.2305L86.6032 56.3762C86.5896 56.3425 86.5706 56.3132 86.5479 56.2887Z" fill="url(#paint24_linear_2491_379346)"/>
</g>
<g filter="url(#filter25_d_2491_379346)">
<path d="M22.8505 62.9773C22.737 62.9781 22.6208 63.0006 22.5079 63.0473C22.0539 63.2349 21.8259 63.7417 21.9987 64.1792C22.1715 64.6167 22.6796 64.8192 23.1335 64.6315C23.2464 64.5849 23.3453 64.5185 23.4275 64.4384C23.4484 64.4312 23.4686 64.42 23.4869 64.4046L25.0426 63.0958C25.1735 62.9857 25.0928 62.7814 24.9239 62.7952L22.9162 62.9594C22.8925 62.9613 22.8704 62.9676 22.8505 62.9773Z" fill="url(#paint25_linear_2491_379346)"/>
</g>
<g filter="url(#filter26_d_2491_379346)">
<path d="M39.4501 55.3774C39.6061 55.2086 39.7969 55.0654 40.0175 54.9601C40.905 54.5367 41.9405 54.8868 42.3303 55.7421C42.7201 56.5973 42.3166 57.6339 41.4291 58.0573C41.2085 58.1626 40.9787 58.22 40.752 58.2338C40.7132 58.2553 40.6698 58.2702 40.6227 58.2766L36.6295 58.8195C36.2936 58.8652 36.1115 58.4658 36.3617 58.2319L39.335 55.4512C39.37 55.4184 39.4091 55.394 39.4501 55.3774Z" fill="url(#paint26_linear_2491_379346)"/>
</g>
<g filter="url(#filter27_dd_2491_379346)">
<circle cx="55" cy="45.5" r="35" fill="#FA9BBB"/>
</g>
<defs>
<filter id="filter0_d_2491_379346" x="14.8281" y="41.3687" width="25.5664" height="27.6173" filterUnits="userSpaceOnUse" color-interpolation-filters="sRGB">
<feFlood flood-opacity="0" result="BackgroundImageFix"/>
<feColorMatrix in="SourceAlpha" type="matrix" values="0 0 0 0 0 0 0 0 0 0 0 0 0 0 0 0 0 0 127 0" result="hardAlpha"/>
<feOffset dy="10"/>
<feGaussianBlur stdDeviation="5"/>
<feColorMatrix type="matrix" values="0 0 0 0 0 0 0 0 0 0 0 0 0 0 0 0 0 0 0.1 0"/>
<feBlend mode="normal" in2="BackgroundImageFix" result="effect1_dropShadow_2491_379346"/>
<feBlend mode="normal" in="SourceGraphic" in2="effect1_dropShadow_2491_379346" result="shape"/>
</filter>
<filter id="filter1_d_2491_379346" x="56.9326" y="76.8143" width="25.5664" height="27.6173" filterUnits="userSpaceOnUse" color-interpolation-filters="sRGB">
<feFlood flood-opacity="0" result="BackgroundImageFix"/>
<feColorMatrix in="SourceAlpha" type="matrix" values="0 0 0 0 0 0 0 0 0 0 0 0 0 0 0 0 0 0 127 0" result="hardAlpha"/>
<feOffset dy="10"/>
<feGaussianBlur stdDeviation="5"/>
<feColorMatrix type="matrix" values="0 0 0 0 0 0 0 0 0 0 0 0 0 0 0 0 0 0 0.1 0"/>
<feBlend mode="normal" in2="BackgroundImageFix" result="effect1_dropShadow_2491_379346"/>
<feBlend mode="normal" in="SourceGraphic" in2="effect1_dropShadow_2491_379346" result="shape"/>
</filter>
<filter id="filter2_d_2491_379346" x="62.6387" y="59.0316" width="23.3398" height="24.5703" filterUnits="userSpaceOnUse" color-interpolation-filters="sRGB">
<feFlood flood-opacity="0" result="BackgroundImageFix"/>
<feColorMatrix in="SourceAlpha" type="matrix" values="0 0 0 0 0 0 0 0 0 0 0 0 0 0 0 0 0 0 127 0" result="hardAlpha"/>
<feOffset dy="10"/>
<feGaussianBlur stdDeviation="5"/>
<feColorMatrix type="matrix" values="0 0 0 0 0 0 0 0 0 0 0 0 0 0 0 0 0 0 0.1 0"/>
<feBlend mode="normal" in2="BackgroundImageFix" result="effect1_dropShadow_2491_379346"/>
<feBlend mode="normal" in="SourceGraphic" in2="effect1_dropShadow_2491_379346" result="shape"/>
</filter>
<filter id="filter3_d_2491_379346" x="39.248" y="28.5543" width="22.9629" height="24.7832" filterUnits="userSpaceOnUse" color-interpolation-filters="sRGB">
<feFlood flood-opacity="0" result="BackgroundImageFix"/>
<feColorMatrix in="SourceAlpha" type="matrix" values="0 0 0 0 0 0 0 0 0 0 0 0 0 0 0 0 0 0 127 0" result="hardAlpha"/>
<feOffset dy="10"/>
<feGaussianBlur stdDeviation="5"/>
<feColorMatrix type="matrix" values="0 0 0 0 0 0 0 0 0 0 0 0 0 0 0 0 0 0 0.1 0"/>
<feBlend mode="normal" in2="BackgroundImageFix" result="effect1_dropShadow_2491_379346"/>
<feBlend mode="normal" in="SourceGraphic" in2="effect1_dropShadow_2491_379346" result="shape"/>
</filter>
<filter id="filter4_d_2491_379346" x="79.9072" y="46.2738" width="24.6748" height="23.0321" filterUnits="userSpaceOnUse" color-interpolation-filters="sRGB">
<feFlood flood-opacity="0" result="BackgroundImageFix"/>
<feColorMatrix in="SourceAlpha" type="matrix" values="0 0 0 0 0 0 0 0 0 0 0 0 0 0 0 0 0 0 127 0" result="hardAlpha"/>
<feOffset dy="10"/>
<feGaussianBlur stdDeviation="5"/>
<feColorMatrix type="matrix" values="0 0 0 0 0 0 0 0 0 0 0 0 0 0 0 0 0 0 0.1 0"/>
<feBlend mode="normal" in2="BackgroundImageFix" result="effect1_dropShadow_2491_379346"/>
<feBlend mode="normal" in="SourceGraphic" in2="effect1_dropShadow_2491_379346" result="shape"/>
</filter>
<filter id="filter5_d_2491_379346" x="56.6992" y="10.0375" width="23.3428" height="26.8162" filterUnits="userSpaceOnUse" color-interpolation-filters="sRGB">
<feFlood flood-opacity="0" result="BackgroundImageFix"/>
<feColorMatrix in="SourceAlpha" type="matrix" values="0 0 0 0 0 0 0 0 0 0 0 0 0 0 0 0 0 0 127 0" result="hardAlpha"/>
<feOffset dy="10"/>
<feGaussianBlur stdDeviation="5"/>
<feColorMatrix type="matrix" values="0 0 0 0 0 0 0 0 0 0 0 0 0 0 0 0 0 0 0.1 0"/>
<feBlend mode="normal" in2="BackgroundImageFix" result="effect1_dropShadow_2491_379346"/>
<feBlend mode="normal" in="SourceGraphic" in2="effect1_dropShadow_2491_379346" result="shape"/>
</filter>
<filter id="filter6_d_2491_379346" x="28.2139" y="32.5592" width="23.1152" height="23.5596" filterUnits="userSpaceOnUse" color-interpolation-filters="sRGB">
<feFlood flood-opacity="0" result="BackgroundImageFix"/>
<feColorMatrix in="SourceAlpha" type="matrix" values="0 0 0 0 0 0 0 0 0 0 0 0 0 0 0 0 0 0 127 0" result="hardAlpha"/>
<feOffset dy="10"/>
<feGaussianBlur stdDeviation="5"/>
<feColorMatrix type="matrix" values="0 0 0 0 0 0 0 0 0 0 0 0 0 0 0 0 0 0 0.1 0"/>
<feBlend mode="normal" in2="BackgroundImageFix" result="effect1_dropShadow_2491_379346"/>
<feBlend mode="normal" in="SourceGraphic" in2="effect1_dropShadow_2491_379346" result="shape"/>
</filter>
<filter id="filter7_d_2491_379346" x="44.6289" y="41.1027" width="23.1143" height="23.5596" filterUnits="userSpaceOnUse" color-interpolation-filters="sRGB">
<feFlood flood-opacity="0" result="BackgroundImageFix"/>
<feColorMatrix in="SourceAlpha" type="matrix" values="0 0 0 0 0 0 0 0 0 0 0 0 0 0 0 0 0 0 127 0" result="hardAlpha"/>
<feOffset dy="10"/>
<feGaussianBlur stdDeviation="5"/>
<feColorMatrix type="matrix" values="0 0 0 0 0 0 0 0 0 0 0 0 0 0 0 0 0 0 0.1 0"/>
<feBlend mode="normal" in2="BackgroundImageFix" result="effect1_dropShadow_2491_379346"/>
<feBlend mode="normal" in="SourceGraphic" in2="effect1_dropShadow_2491_379346" result="shape"/>
</filter>
<filter id="filter8_d_2491_379346" x="48.8926" y="28.1025" width="23.7383" height="24.2715" filterUnits="userSpaceOnUse" color-interpolation-filters="sRGB">
<feFlood flood-opacity="0" result="BackgroundImageFix"/>
<feColorMatrix in="SourceAlpha" type="matrix" values="0 0 0 0 0 0 0 0 0 0 0 0 0 0 0 0 0 0 127 0" result="hardAlpha"/>
<feOffset dy="10"/>
<feGaussianBlur stdDeviation="5"/>
<feColorMatrix type="matrix" values="0 0 0 0 0 0 0 0 0 0 0 0 0 0 0 0 0 0 0.1 0"/>
<feBlend mode="normal" in2="BackgroundImageFix" result="effect1_dropShadow_2491_379346"/>
<feBlend mode="normal" in="SourceGraphic" in2="effect1_dropShadow_2491_379346" result="shape"/>
</filter>
<filter id="filter9_d_2491_379346" x="44.1973" y="52.7908" width="25.5664" height="25.099" filterUnits="userSpaceOnUse" color-interpolation-filters="sRGB">
<feFlood flood-opacity="0" result="BackgroundImageFix"/>
<feColorMatrix in="SourceAlpha" type="matrix" values="0 0 0 0 0 0 0 0 0 0 0 0 0 0 0 0 0 0 127 0" result="hardAlpha"/>
<feOffset dy="10"/>
<feGaussianBlur stdDeviation="5"/>
<feColorMatrix type="matrix" values="0 0 0 0 0 0 0 0 0 0 0 0 0 0 0 0 0 0 0.1 0"/>
<feBlend mode="normal" in2="BackgroundImageFix" result="effect1_dropShadow_2491_379346"/>
<feBlend mode="normal" in="SourceGraphic" in2="effect1_dropShadow_2491_379346" result="shape"/>
</filter>
<filter id="filter10_d_2491_379346" x="44.0098" y="6.69019" width="25.5664" height="25.099" filterUnits="userSpaceOnUse" color-interpolation-filters="sRGB">
<feFlood flood-opacity="0" result="BackgroundImageFix"/>
<feColorMatrix in="SourceAlpha" type="matrix" values="0 0 0 0 0 0 0 0 0 0 0 0 0 0 0 0 0 0 127 0" result="hardAlpha"/>
<feOffset dy="10"/>
<feGaussianBlur stdDeviation="5"/>
<feColorMatrix type="matrix" values="0 0 0 0 0 0 0 0 0 0 0 0 0 0 0 0 0 0 0.1 0"/>
<feBlend mode="normal" in2="BackgroundImageFix" result="effect1_dropShadow_2491_379346"/>
<feBlend mode="normal" in="SourceGraphic" in2="effect1_dropShadow_2491_379346" result="shape"/>
</filter>
<filter id="filter11_d_2491_379346" x="35.8467" y="65.1375" width="25.5664" height="25.099" filterUnits="userSpaceOnUse" color-interpolation-filters="sRGB">
<feFlood flood-opacity="0" result="BackgroundImageFix"/>
<feColorMatrix in="SourceAlpha" type="matrix" values="0 0 0 0 0 0 0 0 0 0 0 0 0 0 0 0 0 0 127 0" result="hardAlpha"/>
<feOffset dy="10"/>
<feGaussianBlur stdDeviation="5"/>
<feColorMatrix type="matrix" values="0 0 0 0 0 0 0 0 0 0 0 0 0 0 0 0 0 0 0.1 0"/>
<feBlend mode="normal" in2="BackgroundImageFix" result="effect1_dropShadow_2491_379346"/>
<feBlend mode="normal" in="SourceGraphic" in2="effect1_dropShadow_2491_379346" result="shape"/>
</filter>
<filter id="filter12_d_2491_379346" x="31.6719" y="18.1489" width="25.5664" height="25.099" filterUnits="userSpaceOnUse" color-interpolation-filters="sRGB">
<feFlood flood-opacity="0" result="BackgroundImageFix"/>
<feColorMatrix in="SourceAlpha" type="matrix" values="0 0 0 0 0 0 0 0 0 0 0 0 0 0 0 0 0 0 127 0" result="hardAlpha"/>
<feOffset dy="10"/>
<feGaussianBlur stdDeviation="5"/>
<feColorMatrix type="matrix" values="0 0 0 0 0 0 0 0 0 0 0 0 0 0 0 0 0 0 0.1 0"/>
<feBlend mode="normal" in2="BackgroundImageFix" result="effect1_dropShadow_2491_379346"/>
<feBlend mode="normal" in="SourceGraphic" in2="effect1_dropShadow_2491_379346" result="shape"/>
</filter>
<filter id="filter13_d_2491_379346" x="60.7861" y="31.2642" width="22.7842" height="22.5496" filterUnits="userSpaceOnUse" color-interpolation-filters="sRGB">
<feFlood flood-opacity="0" result="BackgroundImageFix"/>
<feColorMatrix in="SourceAlpha" type="matrix" values="0 0 0 0 0 0 0 0 0 0 0 0 0 0 0 0 0 0 127 0" result="hardAlpha"/>
<feOffset dy="10"/>
<feGaussianBlur stdDeviation="5"/>
<feColorMatrix type="matrix" values="0 0 0 0 0 0 0 0 0 0 0 0 0 0 0 0 0 0 0.1 0"/>
<feBlend mode="normal" in2="BackgroundImageFix" result="effect1_dropShadow_2491_379346"/>
<feBlend mode="normal" in="SourceGraphic" in2="effect1_dropShadow_2491_379346" result="shape"/>
</filter>
<filter id="filter14_d_2491_379346" x="31.5596" y="44.0792" width="22.7842" height="22.5496" filterUnits="userSpaceOnUse" color-interpolation-filters="sRGB">
<feFlood flood-opacity="0" result="BackgroundImageFix"/>
<feColorMatrix in="SourceAlpha" type="matrix" values="0 0 0 0 0 0 0 0 0 0 0 0 0 0 0 0 0 0 127 0" result="hardAlpha"/>
<feOffset dy="10"/>
<feGaussianBlur stdDeviation="5"/>
<feColorMatrix type="matrix" values="0 0 0 0 0 0 0 0 0 0 0 0 0 0 0 0 0 0 0.1 0"/>
<feBlend mode="normal" in2="BackgroundImageFix" result="effect1_dropShadow_2491_379346"/>
<feBlend mode="normal" in="SourceGraphic" in2="effect1_dropShadow_2491_379346" result="shape"/>
</filter>
<filter id="filter15_d_2491_379346" x="6.16309" y="45.9469" width="24.9834" height="25.6953" filterUnits="userSpaceOnUse" color-interpolation-filters="sRGB">
<feFlood flood-opacity="0" result="BackgroundImageFix"/>
<feColorMatrix in="SourceAlpha" type="matrix" values="0 0 0 0 0 0 0 0 0 0 0 0 0 0 0 0 0 0 127 0" result="hardAlpha"/>
<feOffset dy="10"/>
<feGaussianBlur stdDeviation="5"/>
<feColorMatrix type="matrix" values="0 0 0 0 0 0 0 0 0 0 0 0 0 0 0 0 0 0 0.1 0"/>
<feBlend mode="normal" in2="BackgroundImageFix" result="effect1_dropShadow_2491_379346"/>
<feBlend mode="normal" in="SourceGraphic" in2="effect1_dropShadow_2491_379346" result="shape"/>
</filter>
<filter id="filter16_d_2491_379346" x="57.3457" y="42.5012" width="23.7383" height="24.2715" filterUnits="userSpaceOnUse" color-interpolation-filters="sRGB">
<feFlood flood-opacity="0" result="BackgroundImageFix"/>
<feColorMatrix in="SourceAlpha" type="matrix" values="0 0 0 0 0 0 0 0 0 0 0 0 0 0 0 0 0 0 127 0" result="hardAlpha"/>
<feOffset dy="10"/>
<feGaussianBlur stdDeviation="5"/>
<feColorMatrix type="matrix" values="0 0 0 0 0 0 0 0 0 0 0 0 0 0 0 0 0 0 0.1 0"/>
<feBlend mode="normal" in2="BackgroundImageFix" result="effect1_dropShadow_2491_379346"/>
<feBlend mode="normal" in="SourceGraphic" in2="effect1_dropShadow_2491_379346" result="shape"/>
</filter>
<filter id="filter17_d_2491_379346" x="49.5303" y="63.105" width="24.8525" height="26.9541" filterUnits="userSpaceOnUse" color-interpolation-filters="sRGB">
<feFlood flood-opacity="0" result="BackgroundImageFix"/>
<feColorMatrix in="SourceAlpha" type="matrix" values="0 0 0 0 0 0 0 0 0 0 0 0 0 0 0 0 0 0 127 0" result="hardAlpha"/>
<feOffset dy="10"/>
<feGaussianBlur stdDeviation="5"/>
<feColorMatrix type="matrix" values="0 0 0 0 0 0 0 0 0 0 0 0 0 0 0 0 0 0 0.1 0"/>
<feBlend mode="normal" in2="BackgroundImageFix" result="effect1_dropShadow_2491_379346"/>
<feBlend mode="normal" in="SourceGraphic" in2="effect1_dropShadow_2491_379346" result="shape"/>
</filter>
<filter id="filter18_d_2491_379346" x="20.3037" y="20.3881" width="24.8525" height="26.9541" filterUnits="userSpaceOnUse" color-interpolation-filters="sRGB">
<feFlood flood-opacity="0" result="BackgroundImageFix"/>
<feColorMatrix in="SourceAlpha" type="matrix" values="0 0 0 0 0 0 0 0 0 0 0 0 0 0 0 0 0 0 127 0" result="hardAlpha"/>
<feOffset dy="10"/>
<feGaussianBlur stdDeviation="5"/>
<feColorMatrix type="matrix" values="0 0 0 0 0 0 0 0 0 0 0 0 0 0 0 0 0 0 0.1 0"/>
<feBlend mode="normal" in2="BackgroundImageFix" result="effect1_dropShadow_2491_379346"/>
<feBlend mode="normal" in="SourceGraphic" in2="effect1_dropShadow_2491_379346" result="shape"/>
</filter>
<filter id="filter19_d_2491_379346" x="67.377" y="43.0282" width="24.8525" height="26.9541" filterUnits="userSpaceOnUse" color-interpolation-filters="sRGB">
<feFlood flood-opacity="0" result="BackgroundImageFix"/>
<feColorMatrix in="SourceAlpha" type="matrix" values="0 0 0 0 0 0 0 0 0 0 0 0 0 0 0 0 0 0 127 0" result="hardAlpha"/>
<feOffset dy="10"/>
<feGaussianBlur stdDeviation="5"/>
<feColorMatrix type="matrix" values="0 0 0 0 0 0 0 0 0 0 0 0 0 0 0 0 0 0 0.1 0"/>
<feBlend mode="normal" in2="BackgroundImageFix" result="effect1_dropShadow_2491_379346"/>
<feBlend mode="normal" in="SourceGraphic" in2="effect1_dropShadow_2491_379346" result="shape"/>
</filter>
<filter id="filter20_d_2491_379346" x="6.17188" y="25.1343" width="26.7969" height="24.9642" filterUnits="userSpaceOnUse" color-interpolation-filters="sRGB">
<feFlood flood-opacity="0" result="BackgroundImageFix"/>
<feColorMatrix in="SourceAlpha" type="matrix" values="0 0 0 0 0 0 0 0 0 0 0 0 0 0 0 0 0 0 127 0" result="hardAlpha"/>
<feOffset dy="10"/>
<feGaussianBlur stdDeviation="5"/>
<feColorMatrix type="matrix" values="0 0 0 0 0 0 0 0 0 0 0 0 0 0 0 0 0 0 0.1 0"/>
<feBlend mode="normal" in2="BackgroundImageFix" result="effect1_dropShadow_2491_379346"/>
<feBlend mode="normal" in="SourceGraphic" in2="effect1_dropShadow_2491_379346" result="shape"/>
</filter>
<filter id="filter21_d_2491_379346" x="18.8877" y="68.2593" width="26.7969" height="24.9642" filterUnits="userSpaceOnUse" color-interpolation-filters="sRGB">
<feFlood flood-opacity="0" result="BackgroundImageFix"/>
<feColorMatrix in="SourceAlpha" type="matrix" values="0 0 0 0 0 0 0 0 0 0 0 0 0 0 0 0 0 0 127 0" result="hardAlpha"/>
<feOffset dy="10"/>
<feGaussianBlur stdDeviation="5"/>
<feColorMatrix type="matrix" values="0 0 0 0 0 0 0 0 0 0 0 0 0 0 0 0 0 0 0.1 0"/>
<feBlend mode="normal" in2="BackgroundImageFix" result="effect1_dropShadow_2491_379346"/>
<feBlend mode="normal" in="SourceGraphic" in2="effect1_dropShadow_2491_379346" result="shape"/>
</filter>
<filter id="filter22_d_2491_379346" x="68.3818" y="19.7612" width="23.3467" height="26.7606" filterUnits="userSpaceOnUse" color-interpolation-filters="sRGB">
<feFlood flood-opacity="0" result="BackgroundImageFix"/>
<feColorMatrix in="SourceAlpha" type="matrix" values="0 0 0 0 0 0 0 0 0 0 0 0 0 0 0 0 0 0 127 0" result="hardAlpha"/>
<feOffset dy="10"/>
<feGaussianBlur stdDeviation="5"/>
<feColorMatrix type="matrix" values="0 0 0 0 0 0 0 0 0 0 0 0 0 0 0 0 0 0 0.1 0"/>
<feBlend mode="normal" in2="BackgroundImageFix" result="effect1_dropShadow_2491_379346"/>
<feBlend mode="normal" in="SourceGraphic" in2="effect1_dropShadow_2491_379346" result="shape"/>
</filter>
<filter id="filter23_d_2491_379346" x="35.1895" y="77.5404" width="25.5664" height="25.099" filterUnits="userSpaceOnUse" color-interpolation-filters="sRGB">
<feFlood flood-opacity="0" result="BackgroundImageFix"/>
<feColorMatrix in="SourceAlpha" type="matrix" values="0 0 0 0 0 0 0 0 0 0 0 0 0 0 0 0 0 0 127 0" result="hardAlpha"/>
<feOffset dy="10"/>
<feGaussianBlur stdDeviation="5"/>
<feColorMatrix type="matrix" values="0 0 0 0 0 0 0 0 0 0 0 0 0 0 0 0 0 0 0.1 0"/>
<feBlend mode="normal" in2="BackgroundImageFix" result="effect1_dropShadow_2491_379346"/>
<feBlend mode="normal" in="SourceGraphic" in2="effect1_dropShadow_2491_379346" result="shape"/>
</filter>
<filter id="filter24_d_2491_379346" x="74.0469" y="55.3163" width="23.7383" height="24.2715" filterUnits="userSpaceOnUse" color-interpolation-filters="sRGB">
<feFlood flood-opacity="0" result="BackgroundImageFix"/>
<feColorMatrix in="SourceAlpha" type="matrix" values="0 0 0 0 0 0 0 0 0 0 0 0 0 0 0 0 0 0 127 0" result="hardAlpha"/>
<feOffset dy="10"/>
<feGaussianBlur stdDeviation="5"/>
<feColorMatrix type="matrix" values="0 0 0 0 0 0 0 0 0 0 0 0 0 0 0 0 0 0 0.1 0"/>
<feBlend mode="normal" in2="BackgroundImageFix" result="effect1_dropShadow_2491_379346"/>
<feBlend mode="normal" in="SourceGraphic" in2="effect1_dropShadow_2491_379346" result="shape"/>
</filter>
<filter id="filter25_d_2491_379346" x="11.9414" y="62.7946" width="23.166" height="21.907" filterUnits="userSpaceOnUse" color-interpolation-filters="sRGB">
<feFlood flood-opacity="0" result="BackgroundImageFix"/>
<feColorMatrix in="SourceAlpha" type="matrix" values="0 0 0 0 0 0 0 0 0 0 0 0 0 0 0 0 0 0 127 0" result="hardAlpha"/>
<feOffset dy="10"/>
<feGaussianBlur stdDeviation="5"/>
<feColorMatrix type="matrix" values="0 0 0 0 0 0 0 0 0 0 0 0 0 0 0 0 0 0 0.1 0"/>
<feBlend mode="normal" in2="BackgroundImageFix" result="effect1_dropShadow_2491_379346"/>
<feBlend mode="normal" in="SourceGraphic" in2="effect1_dropShadow_2491_379346" result="shape"/>
</filter>
<filter id="filter26_d_2491_379346" x="26.2451" y="54.7804" width="26.2334" height="24.0427" filterUnits="userSpaceOnUse" color-interpolation-filters="sRGB">
<feFlood flood-opacity="0" result="BackgroundImageFix"/>
<feColorMatrix in="SourceAlpha" type="matrix" values="0 0 0 0 0 0 0 0 0 0 0 0 0 0 0 0 0 0 127 0" result="hardAlpha"/>
<feOffset dy="10"/>
<feGaussianBlur stdDeviation="5"/>
<feColorMatrix type="matrix" values="0 0 0 0 0 0 0 0 0 0 0 0 0 0 0 0 0 0 0.1 0"/>
<feBlend mode="normal" in2="BackgroundImageFix" result="effect1_dropShadow_2491_379346"/>
<feBlend mode="normal" in="SourceGraphic" in2="effect1_dropShadow_2491_379346" result="shape"/>
</filter>
<filter id="filter27_dd_2491_379346" x="0" y="0.5" width="110" height="110" filterUnits="userSpaceOnUse" color-interpolation-filters="sRGB">
<feFlood flood-opacity="0" result="BackgroundImageFix"/>
<feColorMatrix in="SourceAlpha" type="matrix" values="0 0 0 0 0 0 0 0 0 0 0 0 0 0 0 0 0 0 127 0" result="hardAlpha"/>
<feOffset dy="10"/>
<feGaussianBlur stdDeviation="10"/>
<feColorMatrix type="matrix" values="0 0 0 0 0 0 0 0 0 0 0 0 0 0 0 0 0 0 0.1 0"/>
<feBlend mode="normal" in2="BackgroundImageFix" result="effect1_dropShadow_2491_379346"/>
<feColorMatrix in="SourceAlpha" type="matrix" values="0 0 0 0 0 0 0 0 0 0 0 0 0 0 0 0 0 0 127 0" result="hardAlpha"/>
<feOffset dy="2"/>
<feGaussianBlur stdDeviation="2"/>
<feColorMatrix type="matrix" values="0 0 0 0 0.188235 0 0 0 0 0.156863 0 0 0 0 0.756863 0 0 0 0.2 0"/>
<feBlend mode="normal" in2="effect1_dropShadow_2491_379346" result="effect2_dropShadow_2491_379346"/>
<feBlend mode="normal" in="SourceGraphic" in2="effect2_dropShadow_2491_379346" result="shape"/>
</filter>
<linearGradient id="paint0_linear_2491_379346" x1="25.8445" y1="43.398" x2="30.3244" y2="48.8226" gradientUnits="userSpaceOnUse">
<stop stop-color="#FF695D"/>
<stop offset="1" stop-color="#FFB0FC"/>
</linearGradient>
<linearGradient id="paint1_linear_2491_379346" x1="67.9489" y1="78.8437" x2="72.4289" y2="84.2683" gradientUnits="userSpaceOnUse">
<stop stop-color="#FF695D"/>
<stop offset="1" stop-color="#FFB0FC"/>
</linearGradient>
<linearGradient id="paint2_linear_2491_379346" x1="75.3687" y1="60.2492" x2="72.6807" y2="63.5039" gradientUnits="userSpaceOnUse">
<stop stop-color="#FF695D"/>
<stop offset="1" stop-color="#FFB0FC"/>
</linearGradient>
<linearGradient id="paint3_linear_2491_379346" x1="50.6817" y1="29.2647" x2="49.3345" y2="33.2959" gradientUnits="userSpaceOnUse">
<stop stop-color="#FF695D"/>
<stop offset="1" stop-color="#FFB0FC"/>
</linearGradient>
<linearGradient id="paint4_linear_2491_379346" x1="93.4644" y1="46.9096" x2="89.8852" y2="49.0881" gradientUnits="userSpaceOnUse">
<stop stop-color="#E85DFF"/>
<stop offset="1" stop-color="#FFB0FC"/>
</linearGradient>
<linearGradient id="paint5_linear_2491_379346" x1="67.7577" y1="11.1757" x2="67.9515" y2="16.8521" gradientUnits="userSpaceOnUse">
<stop stop-color="#E85DFF"/>
<stop offset="1" stop-color="#FFB0FC"/>
</linearGradient>
<linearGradient id="paint6_linear_2491_379346" x1="40.181" y1="33.0959" x2="38.2254" y2="36.0292" gradientUnits="userSpaceOnUse">
<stop stop-color="#5DC5FF"/>
<stop offset="1" stop-color="#B0FFD0"/>
</linearGradient>
<linearGradient id="paint7_linear_2491_379346" x1="55.1369" y1="42.1885" x2="57.7248" y2="44.5546" gradientUnits="userSpaceOnUse">
<stop stop-color="#FFE55D"/>
<stop offset="1" stop-color="#FFB0D6"/>
</linearGradient>
<linearGradient id="paint8_linear_2491_379346" x1="59.5026" y1="29.4055" x2="62.6081" y2="32.2448" gradientUnits="userSpaceOnUse">
<stop stop-color="#5DA8FF"/>
<stop offset="1" stop-color="#FFB0D6"/>
</linearGradient>
<linearGradient id="paint9_linear_2491_379346" x1="55.895" y1="57.0575" x2="59.78" y2="52.998" gradientUnits="userSpaceOnUse">
<stop stop-color="#989CFF"/>
<stop offset="1" stop-color="#FFCFE6"/>
</linearGradient>
<linearGradient id="paint10_linear_2491_379346" x1="55.7075" y1="10.9569" x2="59.5925" y2="6.89744" gradientUnits="userSpaceOnUse">
<stop stop-color="#989CFF"/>
<stop offset="1" stop-color="#FFCFE6"/>
</linearGradient>
<linearGradient id="paint11_linear_2491_379346" x1="47.5444" y1="65.9697" x2="51.4294" y2="70.0292" gradientUnits="userSpaceOnUse">
<stop stop-color="#FD98FF"/>
<stop offset="1" stop-color="#FFCFE6"/>
</linearGradient>
<linearGradient id="paint12_linear_2491_379346" x1="43.3696" y1="18.9812" x2="47.2546" y2="23.0407" gradientUnits="userSpaceOnUse">
<stop stop-color="#FD98FF"/>
<stop offset="1" stop-color="#FFCFE6"/>
</linearGradient>
<linearGradient id="paint13_linear_2491_379346" x1="71.6355" y1="33.3976" x2="73.578" y2="31.3678" gradientUnits="userSpaceOnUse">
<stop stop-color="#FD98FF"/>
<stop offset="1" stop-color="#FFCFE6"/>
</linearGradient>
<linearGradient id="paint14_linear_2491_379346" x1="42.4089" y1="46.2127" x2="44.3514" y2="44.1829" gradientUnits="userSpaceOnUse">
<stop stop-color="#FD98FF"/>
<stop offset="1" stop-color="#FFCFE6"/>
</linearGradient>
<linearGradient id="paint15_linear_2491_379346" x1="20.3334" y1="49.905" x2="16.1928" y2="46.1192" gradientUnits="userSpaceOnUse">
<stop stop-color="#98FFBB"/>
<stop offset="1" stop-color="#FDFFB0"/>
</linearGradient>
<linearGradient id="paint16_linear_2491_379346" x1="67.9557" y1="43.8041" x2="71.0612" y2="46.6435" gradientUnits="userSpaceOnUse">
<stop stop-color="#98FFBB"/>
<stop offset="1" stop-color="#FDFFB0"/>
</linearGradient>
<linearGradient id="paint17_linear_2491_379346" x1="60.4483" y1="64.8995" x2="64.3095" y2="69.924" gradientUnits="userSpaceOnUse">
<stop stop-color="#98FFBB"/>
<stop offset="1" stop-color="#FDFFB0"/>
</linearGradient>
<linearGradient id="paint18_linear_2491_379346" x1="31.2218" y1="22.1826" x2="35.083" y2="27.2071" gradientUnits="userSpaceOnUse">
<stop stop-color="#98FFBB"/>
<stop offset="1" stop-color="#FDFFB0"/>
</linearGradient>
<linearGradient id="paint19_linear_2491_379346" x1="81.3114" y1="44.8228" x2="77.4502" y2="49.8472" gradientUnits="userSpaceOnUse">
<stop stop-color="#FFC5A5"/>
<stop offset="1" stop-color="#FDFFB0"/>
</linearGradient>
<linearGradient id="paint20_linear_2491_379346" x1="17.1743" y1="27.4054" x2="22.9594" y2="29.8159" gradientUnits="userSpaceOnUse">
<stop stop-color="#FFA5A5"/>
<stop offset="1" stop-color="#FDFFB0"/>
</linearGradient>
<linearGradient id="paint21_linear_2491_379346" x1="34.6821" y1="70.5304" x2="28.897" y2="72.9409" gradientUnits="userSpaceOnUse">
<stop stop-color="#FFA5A5"/>
<stop offset="1" stop-color="#FDFFB0"/>
</linearGradient>
<linearGradient id="paint22_linear_2491_379346" x1="79.2924" y1="21.0825" x2="80.9761" y2="26.4954" gradientUnits="userSpaceOnUse">
<stop stop-color="#FFA5A5"/>
<stop offset="1" stop-color="#FDFFB0"/>
</linearGradient>
<linearGradient id="paint23_linear_2491_379346" x1="46.8872" y1="81.8072" x2="50.7722" y2="77.7477" gradientUnits="userSpaceOnUse">
<stop stop-color="#FFA5A5"/>
<stop offset="1" stop-color="#FDFFB0"/>
</linearGradient>
<linearGradient id="paint24_linear_2491_379346" x1="84.6569" y1="56.6192" x2="87.7624" y2="59.4585" gradientUnits="userSpaceOnUse">
<stop stop-color="#98FFBB"/>
<stop offset="1" stop-color="#FDFFB0"/>
</linearGradient>
<linearGradient id="paint25_linear_2491_379346" x1="22.6658" y1="64.272" x2="25.1213" y2="62.9465" gradientUnits="userSpaceOnUse">
<stop stop-color="#98FFBB"/>
<stop offset="1" stop-color="#FDFFB0"/>
</linearGradient>
<linearGradient id="paint26_linear_2491_379346" x1="41.5531" y1="56.867" x2="36.253" y2="58.5591" gradientUnits="userSpaceOnUse">
<stop stop-color="#6DF6FF"/>
<stop offset="1" stop-color="#B0FFE3"/>
</linearGradient>
</defs>
</svg>
