<svg fill="none" height="20" viewBox="0 0 20 20" width="20" xmlns="http://www.w3.org/2000/svg"><path d="m9.12961 1.30435c.07457.82018 1.65219 1.38058 2.17389 2.17391.6953 1.05716.4348 2.17391 1.3044 2.17391.4601 0 1.7828.03073 5.1862-1.90604-1.8344-2.28182-4.6462-3.74613-7.79493-3.74613-.22402 0-.44563.0100826-.66605.0246522-.12496.3167998-.25168.7500438-.20351 1.2796978z" fill="#72c472"/><path d="m4.78261 16.087c.49629-.8316.91062-2.134 0-3.4782-.60558-.894-1.73913-1.808-1.73913-2.6087 0-1.06416 2.58526-1.45396 3.47826-2.60872.78948-1.0209-.07176-2.82961-.4596-3.47937-.39463-.66117-1.30676-1.50884-1.92884-2.00283-2.5022 1.81938-4.1333 4.76748-4.1333 8.09092 0 3.0018 1.33136 5.6968 3.43246 7.5314.4986-.4245 1.15176-1.112 1.35015-1.4445z" fill="#72c472"/><path d="m17.7944 3.74589c-3.4034 1.93678-4.7261 1.90605-5.1862 1.90605-.8696 0-.609-1.11676-1.3044-2.17392-.5217-.79332-2.09931-1.35373-2.17387-2.17391-.04817-.529652.07854-.962896.20351-1.2796959-1.93468.1279869-3.72007.8078919-5.20065 1.8844459.62208.49399 1.53421 1.34166 1.92884 2.00283.38784.64976 1.24908 2.45847.4596 3.47938-.893 1.15475-3.47826 1.54456-3.47826 2.60869 0 .80074 1.13356 1.71474 1.73913 2.60874.91062 1.3442.49629 2.6466 0 3.4782-.19839.3324-.85155 1.02-1.35015 1.4445 1.75839 1.5353 4.05536 2.4686 6.56754 2.4686 5.51401 0 10.00001-4.4861 10.00001-10.00004 0-2.36522-.8272-4.53987-2.2051-6.25387zm-6.9253 12.34081c-1.30439-.8695.2173-2.029-.8573-5.3013-.44948-1.36884 1.3627-2.6087 3.0435-2.6087 1.6809 0 3.024 1.16808 3.0435 2.6087.0362 2.6811-3.6342 6.365-5.2297 5.3013z" fill="#badefc"/><path d="m13.0564 8.17676c-1.6809 0-3.49299 1.23986-3.0435 2.60874 1.0746 3.2723-.4471 4.4317.8572 5.3013 1.5956 1.0636 5.266-2.6202 5.2298-5.3013-.0195-1.44066-1.3626-2.60874-3.0435-2.60874z" fill="#72c472"/></svg>